<svg height="512" viewBox="0 0 46 60" width="512" xmlns="http://www.w3.org/2000/svg"><g id="Page-1" fill="none" fill-rule="evenodd"><g id="001---Pirate-Costume" fill-rule="nonzero"><path id="Shape" d="m39 19c.0422834 2.0284799-.2240938 4.0515984-.79 6-2.08 6.79-8.1 8-15.21 8s-13.13-1.21-15.21-8c-.56590618-1.9484016-.83228344-3.9715201-.79-6 0 0 5-5 16-5s16 5 16 5z" fill="#ffe0b2"/><path id="Shape" d="m23 14c-.518 0-1.009.021-1.5.042 9.946.428 14.5 4.958 14.5 4.958.0422834 2.0284799-.2240938 4.0515984-.79 6-1.932 6.306-7.264 7.8-13.71 7.978.494.014.993.022 1.5.022 7.11 0 13.13-1.21 15.21-8 .5659062-1.9484016.8322834-3.9715201.79-6 0 0-5-5-16-5z" fill="#dfc49c"/><path id="Shape" d="m38.85 46.36c-.7088231.5541165-1.6289182.7608514-2.5066513.5632161-.8777332-.1976353-1.6204265-.7787729-2.0233487-1.5832161l-2.7-4.34h7.23l.78 1.56c.6770318 1.2909426.3508273 2.8801443-.78 3.8z" fill="#ffe0b2"/><path id="Shape" d="m39.63 42.56-.78-1.56h-3l.78 1.56c.6770318 1.2909426.3508273 2.8801443-.78 3.8-.1138582.0798771-.2331475.151718-.357.215 1.0571.6239922 2.3881376.5387456 3.357-.215 1.1308273-.9198557 1.4570318-2.5090574.78-3.8z" fill="#dfc49c"/><path id="Shape" d="m38.85 41h-7.23l-.62-1v1h-16v-1l-.62 1h-7.23l1.51-3.03c.16877951-.3333353.35572734-.6571556.56-.97h27.56c.2042727.3128444.3912205.6366647.56.97z" fill="#f44335"/><path id="Shape" d="m37.34 37.97c-.1687795-.3333353-.3557273-.6571556-.56-.97h-3c.2042727.3128444.3912205.6366647.56.97l1.51 3.03h3z" fill="#c81e1e"/><path id="Shape" d="m14.38 41-2.7 4.34c-.401036.806067-1.1428849 1.3894085-2.02079634 1.5890219-.8779114.1996134-1.79905824-.0056076-2.50920366-.5590219-1.13029815-.9245241-1.45604524-2.5156733-.78-3.81l.78-1.56z" fill="#ffe0b2"/><path id="Rectangle-path" d="m15 41h16v4h-16z" fill="#f5f5f5"/><path id="Rectangle-path" d="m28 41h3v4h-3z" fill="#cfd8dc"/><path id="Shape" d="m33 55c-8.889 0-8 .045-8-.1.083497-1.9004907-.389136-3.7840722-1.36-5.42-.43-.64-.87-.64-1.28 0-.9809072 1.6684227-1.4535638 3.5868526-1.36 5.52h-8c-.0218349-2.9185101.5745798-5.808565 1.75-8.48.201168-.4801116.2867992-1.0007491.25-1.52h16c-.0379099.5160513.047794 1.033703.25 1.51 1.1756741 2.6748752 1.7720685 5.5682403 1.75 8.49z" fill="#607d8b"/><path id="Shape" d="m31.25 46.51c-.1688371-.3773099-.254118-.7866578-.25-1.2v-.31h-3v.31c-.004118.4133422.0811629.8226901.25 1.2 1.1756741 2.6748752 1.7720685 5.5682403 1.75 8.49h3c.0220685-2.9217597-.5743259-5.8151248-1.75-8.49z" fill="#37474f"/><path id="Shape" d="m21 55c-.0013242 1.2084751-.5474417 2.3519401-1.4865425 3.1125342-.9391009.7605941-2.171075 1.0572363-3.3534575.8074658-1.8305503-.4227613-3.1353931-2.0414272-3.16-3.92z" fill="#ffe0b2"/><path id="Shape" d="m33 55c-.0006544 1.1423333-.4896832 2.2298838-1.3437901 2.988453s-1.9917895 1.1157714-3.1262099.981547c-1.9923475-.2731974-3.4873076-1.9592746-3.52-3.97z" fill="#ffe0b2"/><path id="Shape" d="m30 55c-.0047361 1.6214711-.9912307 3.0784781-2.495 3.685.3265179.1428592.6716034.2388098 1.025.285 1.1344204.1342244 2.272103-.2229778 3.1262099-.981547s1.3431357-1.8461197 1.3437901-2.988453z" fill="#dfc49c"/><path id="Shape" d="m36.78 37h-27.56c1.673112-2.4992685 4.4824019-3.9995568 7.49-4h12.58c3.0075981.0004432 5.816888 1.5007315 7.49 4z" fill="#f5f5f5"/><path id="Shape" d="m29.29 33h-3c3.0075981.0004432 5.816888 1.5007315 7.49 4h3c-1.673112-2.4992685-4.4824019-3.9995568-7.49-4z" fill="#cfd8dc"/><path id="Shape" d="m45 9s-2 7-6 10c0 0-5-5-16-5s-16 5-16 5c-4-3-6-10-6-10 10 1 10-8 14-8 1.6089515-.00752913 3.0372981 1.02832565 3.53 2.56.3081214.77671312.4675542 1.60440674.47 2.44-.1058737 1.08989352.2814076 2.16999484 1.0557064 2.9442936.7742988.77429875 1.8544001 1.1615801 2.9442936 1.0557064 1.0898935.1058737 2.1699948-.28140765 2.9442936-1.0557064.7742988-.77429876 1.1615801-1.85440008 1.0557064-2.9442936.0024458-.83559326.1618786-1.66328688.47-2.44.4927019-1.53167435 1.9210485-2.56752913 3.53-2.56 4 0 4 9 14 8z" fill="#3f51b5"/><path id="Shape" d="m31 1c-.5763584-.00621145-1.1458514.12544738-1.661.384 2.817 1.708 3.91 8.491 12.661 7.616 0 0-1.546 5.4-4.636 8.751.5816036.3665477 1.1291335.7845581 1.636 1.249 4-3 6-10 6-10-10 1-10-8-14-8z" fill="#283593"/><path id="Shape" d="m27.47 3.56c-.3081214.77671312-.4675542 1.60440674-.47 2.44.1058737 1.08989352-.2814076 2.16999484-1.0557064 2.9442936-.7742988.77429875-1.8544001 1.1615801-2.9442936 1.0557064-1.0898935.1058737-2.1699948-.28140765-2.9442936-1.0557064-.7742988-.77429876-1.1615801-1.85440008-1.0557064-2.9442936-.0024458-.83559326-.1618786-1.66328688-.47-2.44 2.6170296-2.08004979 6.3229704-2.08004979 8.94 0z" fill="#283593"/><circle id="Oval" cx="30" cy="22" fill="#f5f5f5" r="2"/><path id="Shape" d="m11.95 20.756 5.3-2.813 1.406 2.65c.7764465 1.4635609.2195036 3.2794455-1.244 4.056-1.4632965.7765993-3.2790905.2201319-4.056-1.243z" fill="#3f51b5"/><path id="Shape" d="m19 33s0 4 4 4 4-4 4-4z" fill="#ffe0b2"/><path id="Shape" d="m7.79 25h-1.79c-1.65685421 0-2.99999991-1.3431458-2.99999991-3s1.3431457-3 2.99999991-3h1c-.04228344 2.0284799.22409382 4.0515984.79 6z" fill="#dfc49c"/><path id="Shape" d="m43 22c0 1.6568542-1.3431458 3-3 3h-1.79c.5659062-1.9484016.8322834-3.9715201.79-6h1c1.6568542 0 3 1.3431458 3 3z" fill="#dfc49c"/><g fill="#000"><path id="Shape" d="m4.726 18.227c-1.31095237.4366589-2.30193214 1.5215618-2.61842142 2.8665903s.08673499 2.7579918 1.06542142 3.7334097c1.3 1.3 2.658 1.173 3.881 1.173 1.01315287 3.0342991 3.3365881 5.4524636 6.328 6.586-2.4450082.8509812-4.46068632 2.6237157-5.617 4.94l-2.292 4.583c-.75553592 1.4714975-.55282895 3.2528737.514 4.517l-1.06 1.488c-1.29721011-.3681063-2.68062899.1745064-3.38166493 1.3263766-.70103593 1.1518702-.54741528 2.6299356.37551429 3.6130212s2.38836596 1.2296066 3.58215064.6026022c.32610132-.160083.53973908-.4844232.55806092-.8472357.01832185-.3628126-.16155437-.707025-.46986958-.8991457-.30831521-.1921208-.69656954-.2019281-1.01419134-.0256186-.43375359.2331783-.97270311.1158553-1.27027987-.2765251s-.26518736-.9430002.07634037-1.2977863c.34152773-.354786.89051546-.4081127 1.2939395-.1256886.44962706.3200329 1.07351583.2153055 1.394-.234l1.577-2.212c1.8663261.7009151 3.9621424-.1022951 4.882-1.871l1.47-2.361c0 1.873.053 2.114-.166 2.6-1.2083517 2.7487299-1.8328636 5.7183963-1.834 8.721-.0309035 1.7863279.8935352 3.4534499 2.4250888 4.373377 1.5315536.9199272 3.4375429.9529008 5 .0865s2.5440077-2.5005491 2.5749112-4.286877c-.0532361-1.6056822.2902331-3.1997227 1-4.641.6928117 1.41366 1.0357731 2.9731058 1 4.547-.0170316 2.5614598 1.8795578 4.7330976 4.42 5.061 1.4175962.1655588 2.8383741-.2825792 3.9044356-1.2315268 1.0660616-.9489476 1.6757796-2.3082421 1.6755644-3.7354732.0236814-3.0629616-.601711-6.0962002-1.835-8.9-.222-.491-.165-.8-.165-2.6l1.422 2.287c.6568328 1.269186 1.940874 2.0915462 3.3684377 2.1573053 1.4275638.0657592 2.7817691-.6350731 3.5525001-1.8385.7707309-1.2034269.840895-2.7266193.1840622-3.9958053l-2.292-4.585c-1.1563137-2.3162843-3.1719918-4.0890188-5.617-4.94 2.991194-1.1333225 5.3145918-3.5510809 6.328-6.585h1.054c1.9584708.0057573 3.6314337-1.4110996 3.9482032-3.3437915.3167695-1.932692-.8163643-3.8094701-2.6742032-4.4292085 2.1258114-2.6533002 3.7174679-5.6933065 4.687-8.952.0911316-.31865217.0184643-.66175517-.1940254-.91610197-.2124898-.25434681-.5371933-.38689043-.8669746-.35389803-9.536.959-8.978-8.005-13.9-8.005-1.5825202-.01981314-3.0607954.78717352-3.9 2.129-2.5282839-1.50512362-5.6777161-1.50512362-8.206 0-.8380886-1.33998733-2.3136061-2.14670963-3.894-2.129-4.866 0-4.4 8.956-13.9 8.005-.32978127-.0329924-.65448483.09955122-.86697456.35389803-.21248973.2543468-.28515709.5974498-.19402544.91610197.96953208 3.2586935 2.56118863 6.2986998 4.687 8.952zm13.192 4.359c-.2374583.7728851-.9169178 1.3267674-1.7218016 1.4035793-.8048837.0768119-1.5768412-.3385583-1.9561984-1.0525793l-.94-1.767 3.535-1.87.938 1.767c.2485734.466855.3007594 1.0135484.145 1.519zm-9.77-.947c-.074-.69-.121-1.418-.133-2.2 1.084-.892 5.118-3.764 12.439-4.332zm-2.148 2.361c-.7145312-.0035726-1.37287927-.3880717-1.72705087-1.0086602-.35417159-.6205885-.35035962-1.3829842.01-2.0000001.36035962-.6170158 1.02251967-.9949124 1.73705087-.9913397.03569304 1.3447266.19266292 2.6834889.469 4zm19.844 10c-.3293741 1.2738194-1.5338476 2.1208472-2.844 2-1.3101524.1208472-2.5146259-.7261806-2.844-2zm6.006 5.474c-.2352962-.3796671-.6938468-.5572508-1.1234851-.4350941-.4296384.1221566-.7261655.5144273-.7265149.9610941h-14c.0000971-.4468521-.2962789-.8395346-.7260342-.9619568s-.8885718.0551325-1.1239658.4349568l-.327.527h-5.059c.2950943-.6915129.6413895-1.3600365 1.036-2h26.4c.3957573.6396407.7427401 1.3082011 1.038 2h-5.061zm-1.85 4.526h-14v-2h14zm-18.573-8c1.4562182-1.2905489 3.335214-2.0021549 5.281-2h1.4c.1362832.7141362.4133312 1.3940084.815 2zm15.654 0c.4016688-.6059916.6787168-1.2858638.815-2h1.4c1.9457521-.0019689 3.824684.709613 5.281 2zm-16.292 8.894c-.2687926.5384207-.7657373.9271896-1.35302357 1.058495-.58728632.1313054-1.20247928-.0088118-1.67497643-.381495-.74894284-.6319972-.95699001-1.7001114-.5-2.567l.5-1h4.819zm3.411 11.106h5.61c-.409677 1.1998463-1.537141 2.0062573-2.805 2.0062573s-2.395323-.806411-2.805-2.0062573zm8.785-8c-1.931.012-2.819 4.037-2.949 6h-6.004c.0952177-2.4382421.6467458-4.8370163 1.626-7.072.128688-.2968186.2197286-.6085738.271-.928h14.142c.226 1.3 1.678 3.263 1.9 8h-6.014c-.128-1.924-1.066-6.111-2.969-6zm3.219 8h5.6c-.4153199 1.1901551-1.5379606 1.9874276-2.7985 1.9874276s-2.3831801-.7972725-2.7985-1.9874276zm12.036-10.429c-.4863245.3819389-1.1214441.5186343-1.7218364.370587-.6003922-.1480473-1.0991537-.5643399-1.3521636-1.128587l-1.747-2.813h4.817l.5 1.005c.4577681.8656802.251405 1.9332761-.496 2.566zm-15.179-13.571c-7.273 0-12.961-1.245-14.574-8.275l3.048-1.618.938 1.769c.757854 1.4294679 2.3022128 2.2616206 3.9128779 2.1083907 1.610665-.1532299 2.9704071-1.2616629 3.4451221-2.8083907.58-1.891-.292-3.048-1.23-4.816l6.228-3.305c7.78.425 12.035 3.466 13.156 4.388-.16 10.402-5.831 12.546-14.924 12.557zm18.939-10c0 1.1045695-.8954305 2-2 2h-.489c.2763371-1.3165111.433307-2.6552734.469-4 .5334878-.0039929 1.0465687.204797 1.4256843.5801589.3791155.3753619.5930002.88634.5943157 1.4198411zm-15.721-18.039c-.1846794.66394308-.2785334 1.34985074-.279 2.039.102214.82276144-.1808237 1.64667118-.7670763 2.23292372-.5862525.58625254-1.4101623.86929025-2.2329237.76707628-.8227614.10221397-1.6466712-.18082374-2.2329237-.76707628-.5862526-.58625254-.8692903-1.41016228-.7670763-2.23292372-.0004666-.68914926-.0943206-1.37505692-.279-2.039 1.9985586-1.28022935 4.5594414-1.28022935 6.558 0zm-11.279-1.961c2.373 0 3 2.617 3 4 0 2.417 1.313 5 5 5s5-2.583 5-5c0-1.383.627-4 3-4 2.8 0 3.724 8.144 12.583 8.078-.711 1.938-2.25 5.5-4.571 7.613-7.933-6.252-24.06-6.275-32.024 0-2.316-2.108-3.857-5.674-4.571-7.613 8.908 0 9.783-8.078 12.583-8.078z"/><path id="Shape" d="m30 19c-1.6568542 0-3 1.3431458-3 3s1.3431458 3 3 3 3-1.3431458 3-3-1.3431458-3-3-3zm0 4c-.5522847 0-1-.4477153-1-1s.4477153-1 1-1 1 .4477153 1 1-.4477153 1-1 1z"/><path id="Shape" d="m25.3 26.282c-.6559217.5070896-1.4720819.7618735-2.3.718-.8276815.0432642-1.643525-.2110662-2.3-.717-.3985064-.3506401-1.0015362-.3288293-1.37367.049684-.3721338.3785132-.3836925.9818266-.02633 1.374316 1.023374.8869696 2.346923 1.3494963 3.7 1.293 1.35546.0583036 2.6818413-.4043376 3.707-1.293.3868567-.3856879.3890919-1.0115587.005-1.4-.3847458-.392806-1.0135902-.40394-1.412-.025z"/></g></g></g></svg>